2.6Hz3min_grf.mot
version=1
nRows=12
nColumns 19
inDegrees=yes
endheader
time	1_ground_force_vx	1_ground_force_vy	1_ground_force_vz	1_ground_force_px	1_ground_force_py	1_ground_force_pz	1_ground_torque_x	1_ground_torque_y	1_ground_torque_z	2_ground_force_vx	2_ground_force_vy	2_ground_force_vz	2_ground_force_px	2_ground_force_py	2_ground_force_pz	2_ground_torque_x	2_ground_torque_y	2_ground_torque_z
            0.005000	            6.370670	          772.731113	         -106.713806	           -0.194990	            0.006019	           -0.356082	            0.026549	            3.220295	           -0.444721	           -7.933234	          811.786309	          135.706986	           -0.196740	            0.005871	           -0.725091	            0.015490	           -1.585087	           -0.264980
            0.005500	            6.551868	          777.780750	         -107.197037	           -0.194988	            0.006019	           -0.356129	            0.027121	            3.219603	           -0.443739	           -7.443682	          818.968958	          136.013946	           -0.196783	            0.005871	           -0.725195	            0.015224	           -1.674956	           -0.278176
            0.006000	            6.410728	          785.716149	         -108.033936	           -0.195371	            0.006019	           -0.356040	            0.026831	            3.288420	           -0.452149	           -7.088328	          824.490760	          137.159772	           -0.196880	            0.005870	           -0.725034	            0.014513	           -1.688046	           -0.280818
            0.006500	            6.454185	          791.306722	         -108.560359	           -0.195222	            0.006019	           -0.356091	            0.028442	            3.487041	           -0.478392	           -6.787484	          832.040846	          137.515061	           -0.197043	            0.005870	           -0.725050	            0.014763	           -1.809683	           -0.299094
            0.007000	            6.589147	          797.258102	         -109.131331	           -0.195615	            0.006019	           -0.356260	            0.031186	            3.773348	           -0.516508	           -6.573030	          837.564985	          137.863193	           -0.197219	            0.005869	           -0.724937	            0.014716	           -1.875222	           -0.308661
            0.007500	            6.587070	          803.028373	         -109.519296	           -0.195701	            0.006020	           -0.356396	            0.032050	            3.907165	           -0.532870	           -6.505647	          844.929019	          138.499478	           -0.197259	            0.005869	           -0.725084	            0.015343	           -1.992695	           -0.326640
            0.008000	            6.172408	          807.537129	         -110.003366	           -0.195867	            0.006022	           -0.356743	            0.029772	            3.895131	           -0.530598	           -6.151931	          850.821613	          138.942705	           -0.197422	            0.005868	           -0.724976	            0.014958	           -2.068753	           -0.337836
            0.008500	            5.804054	          815.108548	         -110.061696	           -0.196084	            0.006020	           -0.356498	            0.027479	            3.859066	           -0.521078	           -5.752694	          857.082779	          139.387227	           -0.197504	            0.005868	           -0.724960	            0.014613	           -2.177128	           -0.354066
            0.009000	            5.526757	          820.518689	         -110.542243	           -0.195977	            0.006021	           -0.356590	            0.026037	            3.865499	           -0.520769	           -5.071549	          863.159464	          140.159460	           -0.197619	            0.005867	           -0.724922	            0.013457	           -2.290362	           -0.371908
            0.009500	            5.432586	          826.650002	         -111.066006	           -0.196279	            0.006021	           -0.356614	            0.026469	            4.027600	           -0.541135	           -5.052469	          870.892737	          140.515526	           -0.197892	            0.005866	           -0.724917	            0.013797	           -2.378209	           -0.383716
            0.010000	            5.475605	          831.520618	         -111.824796	           -0.196423	            0.006022	           -0.356938	            0.028433	            4.317749	           -0.580661	           -4.836000	          875.864226	          140.908592	           -0.197939	            0.005866	           -0.724848	            0.013757	           -2.491590	           -0.400846
            0.010500	            5.335687	          838.372592	         -112.253649	           -0.196543	            0.006021	           -0.356733	            0.028777	            4.521608	           -0.605419	           -4.389934	          882.125606	          141.306157	           -0.197932	            0.005865	           -0.724643	            0.012866	           -2.585263	           -0.414129
